HIERARCHY
ROOT root
{
  OFFSET 0 95.9893 0
  CHANNELS 6 Xposition Yposition Zposition Zrotation Xrotation Yrotation
  JOINT torso_1
  {
    OFFSET 0 5.22546 -1.18466
    CHANNELS 6 Xposition Yposition Zposition Zrotation Xrotation Yrotation
    JOINT torso_2
    {
      OFFSET 0 5.77894 1.10239
      CHANNELS 6 Xposition Yposition Zposition Zrotation Xrotation Yrotation
      JOINT torso_3
      {
        OFFSET -1.0557e-17 6.16289 0.118334
        CHANNELS 6 Xposition Yposition Zposition Zrotation Xrotation Yrotation
        JOINT torso_4
        {
          OFFSET -1.13649e-17 6.69386 -0.456341
          CHANNELS 6 Xposition Yposition Zposition Zrotation Xrotation Yrotation
          JOINT torso_5
          {
            OFFSET -2.02997e-17 7.82529 -1.54945
            CHANNELS 6 Xposition Yposition Zposition Zrotation Xrotation Yrotation
            JOINT torso_6
            {
              OFFSET -2.60628e-17 9.77186 -0.940923
              CHANNELS 6 Xposition Yposition Zposition Zrotation Xrotation Yrotation
              JOINT torso_7
              {
                OFFSET -2.98794e-17 10.8563 1.62248
                CHANNELS 6 Xposition Yposition Zposition Zrotation Xrotation Yrotation
                JOINT neck_1
                {
                  OFFSET -1.32927e-17 4.92478 0.736013
                  CHANNELS 6 Xposition Yposition Zposition Zrotation Xrotation Yrotation
                  JOINT neck_2
                  {
                    OFFSET -1.86396e-17 4.96043 0.433981
                    CHANNELS 6 Xposition Yposition Zposition Zrotation Xrotation Yrotation
                    JOINT head
                    {
                      OFFSET -2.06766e-17 4.97002 0.787173
                      CHANNELS 6 Xposition Yposition Zposition Zrotation Xrotation Yrotation
                      End Site
                      {
                        OFFSET 0 0.1 0
                      }
                    }
                  }
                }
                JOINT l_shoulder
                {
                  OFFSET 1.26863 -7.82717 7.75148
                  CHANNELS 6 Xposition Yposition Zposition Zrotation Xrotation Yrotation
                  JOINT l_up_arm
                  {
                    OFFSET 13.3291 3.34342 -3.36319
                    CHANNELS 6 Xposition Yposition Zposition Zrotation Xrotation Yrotation
                    JOINT l_low_arm
                    {
                      OFFSET 30.0522 0.0615366 0.141
                      CHANNELS 6 Xposition Yposition Zposition Zrotation Xrotation Yrotation
                      JOINT l_hand
                      {
                        OFFSET 24.9344 0.0510561 0.116988
                        CHANNELS 6 Xposition Yposition Zposition Zrotation Xrotation Yrotation
                        End Site
                        {
                          OFFSET 0.1 0 0
                        }
                      }
                    }
                  }
                }
                JOINT r_shoulder
                {
                  OFFSET -1.26863 -7.82715 7.75138
                  CHANNELS 6 Xposition Yposition Zposition Zrotation Xrotation Yrotation
                  JOINT r_up_arm
                  {
                    OFFSET -13.3291 3.34342 -3.36319
                    CHANNELS 6 Xposition Yposition Zposition Zrotation Xrotation Yrotation
                    JOINT r_low_arm
                    {
                      OFFSET -30.0522 0.0615366 0.141
                      CHANNELS 6 Xposition Yposition Zposition Zrotation Xrotation Yrotation
                      JOINT r_hand
                      {
                        OFFSET -24.9344 0.0510559 0.116988
                        CHANNELS 6 Xposition Yposition Zposition Zrotation Xrotation Yrotation
                        End Site
                        {
                          OFFSET -0.1 0 0
                        }
                      }
                    }
                  }
                }
              }
            }
          }
        }
      }
    }
  }
  JOINT l_up_leg
  {
    OFFSET 9.50369 -4.32711 2.09145
    CHANNELS 6 Xposition Yposition Zposition Zrotation Xrotation Yrotation
    JOINT l_low_leg
    {
      OFFSET -0.876987 -39.8926 -0.674123
      CHANNELS 6 Xposition Yposition Zposition Zrotation Xrotation Yrotation
      JOINT l_foot
      {
        OFFSET -2.39345 -41.5694 -6.22357
        CHANNELS 6 Xposition Yposition Zposition Zrotation Xrotation Yrotation
        JOINT l_toes
        {
          OFFSET 0.801613 -10.1701 12.8571
          CHANNELS 6 Xposition Yposition Zposition Zrotation Xrotation Yrotation
          End Site
          {
            OFFSET 0 0 0.1
          }
        }
      }
    }
  }
  JOINT r_up_leg
  {
    OFFSET -9.50369 -4.32711 2.09145
    CHANNELS 6 Xposition Yposition Zposition Zrotation Xrotation Yrotation
    JOINT r_low_leg
    {
      OFFSET 0.876987 -39.8926 -0.674123
      CHANNELS 6 Xposition Yposition Zposition Zrotation Xrotation Yrotation
      JOINT r_foot
      {
        OFFSET 2.39345 -41.5694 -6.22357
        CHANNELS 6 Xposition Yposition Zposition Zrotation Xrotation Yrotation
        JOINT r_toes
        {
          OFFSET -0.801613 -10.1701 12.8571
          CHANNELS 6 Xposition Yposition Zposition Zrotation Xrotation Yrotation
          End Site
          {
            OFFSET 0 0 0.1
          }
        }
      }
    }
  }
}
MOTION
Frames: 5
Frame Time: 0.016667
0 95.9893 0 -0 0 -0 0 5.22546 -1.18466 -0 0 -0 0 5.77894 1.10239 -0 0 -0 -1.0557e-17 6.16289 0.118334 -0 0 -0 -1.13649e-17 6.69386 -0.456341 -0 0 -0 -2.02997e-17 7.82529 -1.54945 -0 0 -0 -2.60628e-17 9.77186 -0.940923 -0 0 -0 -2.98794e-17 10.8563 1.62248 -0 0 -0 -1.32927e-17 4.92478 0.736013 -0 0 -0 -1.86396e-17 4.96043 0.433981 -0 0 -0 -2.06766e-17 4.97002 0.787173 -0 0 -0 1.26863 -7.82717 7.75148 -0 0 -0 13.3291 3.34342 -3.36319 -0 0 -0 30.0522 0.0615366 0.141 -0 0 -0 24.9344 0.0510561 0.116988 -0 0 -0 -1.26863 -7.82715 7.75138 -0 0 -0 -13.3291 3.34342 -3.36319 -0 0 -0 -30.0522 0.0615366 0.141 -0 0 -0 -24.9344 0.0510559 0.116988 -0 0 -0 9.50369 -4.32711 2.09145 -0 0 -0 -0.876987 -39.8926 -0.674123 -0 0 -0 -2.39345 -41.5694 -6.22357 -0 0 -0 0.801613 -10.1701 12.8571 -0 0 -0 -9.50369 -4.32711 2.09145 -0 0 -0 0.876987 -39.8926 -0.674123 -0 0 -0 2.39345 -41.5694 -6.22357 -0 0 -0 -0.801613 -10.1701 12.8571 -0 0 -0 
0.466383 95.5505 -70.9058 0.191255 0.0157057 2.41298 0 5.22546 -1.18466 -0.565282 -0.774626 -0.0123836 0 5.77894 1.10239 -0.355884 -0.145554 -0.0854126 -1.0557e-17 6.16289 0.118334 -0.193569 0.726089 -0.0689368 -1.13649e-17 6.69386 -0.456341 -0.014735 1.86034 -0.0716104 -2.02997e-17 7.82529 -1.54945 0.161486 2.25726 -0.0917145 -2.60628e-17 9.77186 -0.940923 0.284112 2.1846 -0.292328 -2.98794e-17 10.8563 1.62248 -0.108076 0.911013 0.00965506 -1.32927e-17 4.92478 0.736013 -1.17687 -2.06442 -10.9383 -1.86396e-17 4.96043 0.433981 -0.152137 -4.25439 -5.34354 -2.06766e-17 4.97002 0.787173 -0.0985346 -1.18791 -2.15362 1.26863 -7.82717 7.75148 0.284469 2.54413 -5.53839 13.3291 3.34342 -3.36319 -54.5419 39.4206 -41.2373 30.0522 0.0615366 0.141 4.25914 -0.765404 -20.9592 24.9344 0.0510561 0.116988 2.35478 -54.2261 -2.1975 -1.26863 -7.82715 7.75138 -3.39714 1.64053 5.10095 -13.3291 3.34342 -3.36319 57.4505 34.1764 34.5081 -30.0522 0.0615366 0.141 -5.38748 -1.25868 26.8769 -24.9344 0.0510559 0.116988 1.01251 -20.9391 4.92689 9.50369 -4.32711 2.09145 1.35089 -3.44354 -16.9465 -0.876987 -39.8926 -0.674123 -0.890898 3.32724 -0.0322136 -2.39345 -41.5694 -6.22357 -0.66293 -2.23454 15.4275 0.801613 -10.1701 12.8571 1.15886e-16 -6.67877e-16 -1.98141e-16 -9.50369 -4.32711 2.09145 -1.28785 -5.53357 17.5409 0.876987 -39.8926 -0.674123 1.25424 4.68275 0.0304931 2.39345 -41.5694 -6.22357 -1.32279 -1.11523 -15.0041 -0.801613 -10.1701 12.8571 -6.00124e-16 -3.85884e-16 -1.25795e-14 
0.482954 95.5442 -70.888 0.188082 0.0644583 2.31445 0 5.22546 -1.18466 -0.528875 -0.879612 0.0309564 0 5.77894 1.10239 -0.33639 -0.209461 -0.0343587 -1.0557e-17 6.16289 0.118334 -0.186258 0.705375 -0.0187698 -1.13649e-17 6.69386 -0.456341 -0.0215604 1.91027 -0.019725 -2.02997e-17 7.82529 -1.54945 0.151715 2.35029 -0.0376765 -2.60628e-17 9.77186 -0.940923 0.278629 2.30817 -0.235794 -2.98794e-17 10.8563 1.62248 -0.111374 0.900925 0.0140664 -1.32927e-17 4.92478 0.736013 -1.29823 -2.47327 -10.9389 -1.86396e-17 4.96043 0.433981 -0.214805 -4.24008 -5.34784 -2.06766e-17 4.97002 0.787173 -0.207003 -0.955794 -2.27425 1.26863 -7.82717 7.75148 0.277635 2.50282 -5.55191 13.3291 3.34342 -3.36319 -54.7972 39.3073 -41.7304 30.0522 0.0615366 0.141 4.19454 -0.741256 -20.6276 24.9344 0.0510561 0.116988 2.96361 -53.4202 -1.74695 -1.26863 -7.82715 7.75138 -3.06869 1.67722 5.18003 -13.3291 3.34342 -3.36319 57.1781 34.0502 34.6869 -30.0522 0.0615366 0.141 -5.35943 -1.2447 26.7265 -24.9344 0.0510559 0.116988 1.01856 -21.8816 4.86137 9.50369 -4.32711 2.09145 1.35511 -3.45625 -16.8539 -0.876987 -39.8926 -0.674123 -0.888017 3.31649 -0.0321928 -2.39345 -41.5694 -6.22357 -0.644524 -2.27565 15.4249 0.801613 -10.1701 12.8571 1.15886e-16 -6.67877e-16 -1.98141e-16 -9.50369 -4.32711 2.09145 -1.28199 -5.58599 17.6433 0.876987 -39.8926 -0.674123 1.25586 4.68878 0.0304662 2.39345 -41.5694 -6.22357 -1.35512 -1.1386 -15.0045 -0.801613 -10.1701 12.8571 -6.00124e-16 -3.85884e-16 -1.25795e-14 
0.498489 95.5388 -70.8681 0.161024 0.103854 2.20557 0 5.22546 -1.18466 -0.487494 -0.988493 0.0734413 0 5.77894 1.10239 -0.311304 -0.276739 0.0163343 -1.0557e-17 6.16289 0.118334 -0.17424 0.683956 0.0307326 -1.13649e-17 6.69386 -0.456341 -0.024346 1.96128 0.0315859 -2.02997e-17 7.82529 -1.54945 0.144476 2.44631 0.0155743 -2.60628e-17 9.77186 -0.940923 0.27454 2.43558 -0.180207 -2.98794e-17 10.8563 1.62248 -0.114252 0.890312 0.0175975 -1.32927e-17 4.92478 0.736013 -1.39641 -2.81065 -10.9027 -1.86396e-17 4.96043 0.433981 -0.290866 -4.26383 -5.33447 -2.06766e-17 4.97002 0.787173 -0.320203 -0.797078 -2.4298 1.26863 -7.82717 7.75148 0.281373 2.4254 -5.52578 13.3291 3.34342 -3.36319 -55.4027 39.0106 -42.0595 30.0522 0.0615366 0.141 4.12169 -0.714536 -20.2545 24.9344 0.0510561 0.116988 3.54658 -52.2417 -1.40912 -1.26863 -7.82715 7.75138 -2.74661 1.68318 5.20912 -13.3291 3.34342 -3.36319 57.3424 33.6642 34.7237 -30.0522 0.0615366 0.141 -5.33474 -1.23246 26.5942 -24.9344 0.0510559 0.116988 0.923645 -22.3488 4.75477 9.50369 -4.32711 2.09145 1.38771 -3.45752 -16.7615 -0.876987 -39.8926 -0.674123 -0.885431 3.30683 -0.0321737 -2.39345 -41.5694 -6.22357 -0.640363 -2.33563 15.4256 0.801613 -10.1701 12.8571 4.34412e-16 -6.54116e-16 -2.08095e-16 -9.50369 -4.32711 2.09145 -1.24826 -5.62614 17.7524 0.876987 -39.8926 -0.674123 1.25429 4.68293 0.0304923 2.39345 -41.5694 -6.22357 -1.38234 -1.13957 -15.0039 -0.801613 -10.1701 12.8571 -9.1865e-16 -3.72122e-16 -1.25695e-14 
0.50689 95.538 -70.8458 0.140471 0.105761 2.08367 0 5.22546 -1.18466 -0.45251 -1.07025 0.116556 0 5.77894 1.10239 -0.290254 -0.325833 0.0663576 -1.0557e-17 6.16289 0.118334 -0.164744 0.671919 0.0792845 -1.13649e-17 6.69386 -0.456341 -0.028031 2.00535 0.0818496 -2.02997e-17 7.82529 -1.54945 0.137782 2.52524 0.0679094 -2.60628e-17 9.77186 -0.940923 0.272734 2.54067 -0.12565 -2.98794e-17 10.8563 1.62248 -0.116534 0.881983 0.0212989 -1.32927e-17 4.92478 0.736013 -1.47522 -3.08186 -10.8597 -1.86396e-17 4.96043 0.433981 -0.374488 -4.28443 -5.31618 -2.06766e-17 4.97002 0.787173 -0.421741 -0.680344 -2.57099 1.26863 -7.82717 7.75148 0.249125 2.34948 -5.50294 13.3291 3.34342 -3.36319 -56.1866 38.5577 -42.2071 30.0522 0.0615366 0.141 4.05515 -0.690598 -19.9144 24.9344 0.0510561 0.116988 3.94451 -50.8747 -1.28888 -1.26863 -7.82715 7.75138 -2.42241 1.68862 5.22609 -13.3291 3.34342 -3.36319 57.8436 33.0652 34.6516 -30.0522 0.0615366 0.141 -5.30244 -1.21656 26.4213 -24.9344 0.0510559 0.116988 0.813944 -22.7801 4.68927 9.50369 -4.32711 2.09145 1.42034 -3.4154 -16.667 -0.876987 -39.8926 -0.674123 -0.880611 3.28884 -0.0321369 -2.39345 -41.5694 -6.22357 -0.65173 -2.3717 15.4287 0.801613 -10.1701 12.8571 -1.23595e-16 -6.78224e-16 -1.80704e-16 -9.50369 -4.32711 2.09145 -1.21616 -5.62393 17.873 0.876987 -39.8926 -0.674123 1.25007 4.66721 0.0305617 2.39345 -41.5694 -6.22357 -1.39591 -1.12222 -15.0016 -0.801613 -10.1701 12.8571 -6.79168e-16 -3.82469e-16 -1.2577e-14 
